<svg width="142" height="142" viewBox="0 0 142 142" fill="none" xmlns="http://www.w3.org/2000/svg">
<g id="logoYellow">
<circle id="Ellipse 45" cx="71" cy="71" r="71" fill="#FFC700"/>
<path id="o" d="M103.716 92.259C99.7207 93.6288 95.8832 93.9801 92.2041 93.3131C88.5704 92.6305 85.3623 91.117 82.5797 88.7727C79.7816 86.3829 77.7288 83.2809 76.4213 79.4668C75.1294 75.6981 74.8553 72.0118 75.5988 68.408C76.3424 64.8041 77.9395 61.618 80.3903 58.8497C82.8864 56.0659 86.1324 53.9891 90.1281 52.6194C94.1239 51.2496 97.9613 50.8983 101.64 51.5653C105.32 52.2323 108.558 53.7607 111.356 56.1505C114.154 58.5403 116.199 61.6195 117.491 65.3882C118.799 69.2024 119.081 72.9113 118.337 76.5152C117.578 80.0736 115.95 83.2448 113.454 86.0287C110.958 88.8125 107.712 90.8893 103.716 92.259ZM103.456 88.3905C106.362 87.3943 108.165 85.2539 108.866 81.9692C109.612 78.6689 109.254 74.8846 107.79 70.6164C106.592 67.1202 105.057 64.196 103.185 61.8439C101.343 59.4308 99.3173 57.7403 97.108 56.7724C94.9442 55.7889 92.7952 55.663 90.6611 56.3945C88.754 57.0483 87.2841 58.2371 86.2514 59.9612C85.2641 61.6697 84.7353 63.7538 84.6651 66.2134C84.6403 68.6575 85.1182 71.3099 86.0988 74.1705C87.2973 77.6668 88.8403 80.6137 90.7277 83.0112C92.6152 85.4087 94.6635 87.0914 96.8728 88.0593C99.082 89.0272 101.276 89.1376 103.456 88.3905Z" fill="black"/>
<path id="D" d="M25.168 47V48.152L31.288 51.104V90.416L25.168 93.368V94.52H49.72C55.432 94.52 60.28 93.584 64.264 91.712C68.248 89.84 71.272 87.272 73.336 84.008C75.448 80.744 76.504 77.048 76.504 72.92C76.504 69.176 75.808 65.72 74.416 62.552C73.072 59.384 71.176 56.648 68.728 54.344C66.28 52.04 63.4 50.24 60.088 48.944C56.776 47.648 53.152 47 49.216 47H25.168ZM46.768 90.56H42.16V50.96H47.776C53.344 50.96 57.64 52.736 60.664 56.288C63.688 59.888 65.2 64.688 65.2 70.688C65.2 76.736 63.64 81.56 60.52 85.16C57.448 88.76 52.864 90.56 46.768 90.56Z" fill="black"/>
<path id="D (Stroke)" fill-rule="evenodd" clip-rule="evenodd" d="M22.168 44V50.0357L28.288 52.9877V88.5323L22.168 91.4843V97.52H49.72C55.7469 97.52 61.0563 96.5339 65.5398 94.4272C69.9618 92.3494 73.4531 89.43 75.8633 85.6244C78.3034 81.8476 79.504 77.5833 79.504 72.92C79.504 68.8017 78.7375 64.9365 77.1702 61.3627C75.6681 57.8285 73.5377 54.751 70.7841 52.1594C68.041 49.5777 64.8291 47.5777 61.1812 46.1503C57.4855 44.7041 53.4862 44 49.216 44H22.168ZM74.416 62.552C75.808 65.72 76.504 69.176 76.504 72.92C76.504 77.048 75.448 80.744 73.336 84.008C71.272 87.272 68.248 89.84 64.264 91.712C60.28 93.584 55.432 94.52 49.72 94.52H25.168V93.368L31.288 90.416V51.104L25.168 48.152V47H49.216C53.152 47 56.776 47.648 60.088 48.944C63.4 50.24 66.28 52.04 68.728 54.344C71.176 56.648 73.072 59.384 74.416 62.552ZM58.2454 83.2039L58.2379 83.2126C55.8913 85.9626 52.2574 87.56 46.768 87.56H45.16V53.96H47.776C52.6476 53.96 56.0307 55.4781 58.3732 58.2251C60.8257 61.1489 62.2 65.1992 62.2 70.688C62.2 76.2144 60.7838 80.275 58.2529 83.1952L58.2454 83.2039ZM60.664 56.288C57.64 52.736 53.344 50.96 47.776 50.96H42.16V90.56H46.768C52.864 90.56 57.448 88.76 60.52 85.16C63.64 81.56 65.2 76.736 65.2 70.688C65.2 64.688 63.688 59.888 60.664 56.288Z" fill="#FFC700"/>
</g>
</svg>
