<svg width="350" height="350" viewBox="0 0 350 350" fill="none" xmlns="http://www.w3.org/2000/svg">
<path fill-rule="evenodd" clip-rule="evenodd" d="M4.96925 191.667L12.0039 191.667C19.8012 268.841 81.1591 330.199 158.333 337.996L158.333 345.031C77.2899 337.184 12.816 272.71 4.96925 191.667ZM12.0039 158.333L4.96926 158.333C12.8161 77.2899 77.2899 12.8161 158.333 4.96927L158.333 12.0039C81.1592 19.8012 19.8012 81.1592 12.0039 158.333ZM191.667 337.996C268.841 330.199 330.199 268.841 337.996 191.667L345.031 191.667C337.184 272.71 272.71 337.184 191.667 345.031L191.667 337.996ZM191.667 12.0039C268.841 19.8012 330.199 81.1592 337.996 158.333L345.031 158.333C337.184 77.2899 272.71 12.816 191.667 4.96927L191.667 12.0039Z" fill="#1F251E"/>
<circle r="6.25" transform="matrix(1 8.74228e-08 8.74228e-08 -1 6.25 175)" fill="#1F251E"/>
<circle r="6.25" transform="matrix(1 8.74228e-08 8.74228e-08 -1 343.75 175)" fill="#1F251E"/>
<circle r="6.25" transform="matrix(1 8.74228e-08 8.74228e-08 -1 175 343.75)" fill="#1F251E"/>
<circle r="6.25" transform="matrix(1 8.74228e-08 8.74228e-08 -1 175 6.24999)" fill="#1F251E"/>
<path d="M45.8335 175C45.8335 191.962 49.1745 208.759 55.6657 224.43C62.1569 240.101 71.6713 254.34 83.6655 266.335C95.6598 278.329 109.899 287.843 125.57 294.334C141.241 300.826 158.038 304.167 175 304.167C191.963 304.167 208.759 300.826 224.43 294.334C240.101 287.843 254.341 278.329 266.335 266.335C278.329 254.34 287.843 240.101 294.335 224.43C300.826 208.759 304.167 191.962 304.167 175L224.083 175C224.083 181.446 222.814 187.828 220.347 193.783C217.881 199.738 214.265 205.149 209.707 209.707C205.149 214.265 199.739 217.88 193.784 220.347C187.828 222.814 181.446 224.083 175 224.083C168.554 224.083 162.172 222.814 156.217 220.347C150.262 217.88 144.851 214.265 140.293 209.707C135.735 205.149 132.12 199.738 129.653 193.783C127.186 187.828 125.917 181.446 125.917 175L45.8335 175Z" fill="#1F251E"/>
<path d="M119.643 175C119.643 167.73 121.075 160.532 123.857 153.816C126.639 147.099 130.716 140.997 135.857 135.857C140.997 130.716 147.1 126.639 153.816 123.857C160.532 121.075 167.731 119.643 175 119.643C182.27 119.643 189.468 121.075 196.184 123.857C202.901 126.639 209.003 130.716 214.144 135.857C219.284 140.997 223.362 147.099 226.144 153.816C228.926 160.532 230.357 167.73 230.357 175L175 175L119.643 175Z" fill="#1F251E"/>
<circle r="37.5" transform="matrix(1 8.74228e-08 8.74228e-08 -1 175 66.6667)" fill="#1F251E"/>
<circle r="25" transform="matrix(1 8.74228e-08 8.74228e-08 -1 175 66.6667)" fill="#1F251E"/>
</svg>
