<svg width="177" height="55" viewBox="0 0 177 55" fill="none" xmlns="http://www.w3.org/2000/svg">
<rect width="176.55" height="55" rx="1.65" fill="black"/>
<path d="M3.30005 5.50001C3.30005 4.58874 4.03878 3.85001 4.95005 3.85001H45.65V51.15H4.95005C4.03878 51.15 3.30005 50.4113 3.30005 49.5V5.50001Z" fill="white"/>
<path d="M48.9502 3.85001H171.6C172.511 3.85001 173.25 4.58874 173.25 5.50001V49.5C173.25 50.4113 172.511 51.15 171.6 51.15H48.9502V3.85001Z" fill="white"/>
<path fill-rule="evenodd" clip-rule="evenodd" d="M8.17529 28.8226L8.88123 28.8226C9.62813 36.2036 15.4964 42.0718 22.8774 42.8186L22.8774 43.5245C15.1081 42.7727 8.92716 36.5919 8.17529 28.8226ZM8.88139 25.6274L8.17544 25.6274C8.92798 17.8588 15.1086 11.6787 22.8774 10.927L22.8774 11.633C15.4969 12.3797 9.62894 18.2471 8.88139 25.6274ZM26.0726 42.8184C33.4527 42.0708 39.32 36.203 40.0668 28.8226L40.7728 28.8226C40.0209 36.5912 33.841 42.7717 26.0726 43.5243L26.0726 42.8184ZM26.0726 11.6331C33.4522 12.3807 39.3192 18.2478 40.0667 25.6274L40.7726 25.6274C40.0201 17.8595 33.8405 11.6798 26.0726 10.9272L26.0726 11.6331Z" fill="black"/>
<circle r="0.599107" transform="matrix(1 8.74228e-08 8.74228e-08 -1 8.29906 27.2249)" fill="black"/>
<circle r="0.599107" transform="matrix(1 8.74228e-08 8.74228e-08 -1 40.6506 27.2249)" fill="black"/>
<circle r="0.599107" transform="matrix(1 8.74228e-08 8.74228e-08 -1 24.4748 43.4009)" fill="black"/>
<circle r="0.599107" transform="matrix(1 8.74228e-08 8.74228e-08 -1 24.4748 11.0491)" fill="black"/>
<path d="M12.0937 27.225C12.0937 28.851 12.414 30.461 13.0362 31.9632C13.6585 33.4654 14.5705 34.8303 15.7202 35.9801C16.87 37.1298 18.2349 38.0418 19.7371 38.6641C21.2393 39.2863 22.8493 39.6065 24.4753 39.6065C26.1013 39.6065 27.7113 39.2863 29.2135 38.6641C30.7157 38.0418 32.0806 37.1298 33.2304 35.9801C34.3801 34.8303 35.2921 33.4654 35.9144 31.9632C36.5366 30.461 36.8568 28.851 36.8568 27.225L29.1803 27.225C29.1803 27.8429 29.0586 28.4547 28.8221 29.0255C28.5857 29.5963 28.2391 30.115 27.8022 30.5519C27.3653 30.9888 26.8467 31.3354 26.2758 31.5718C25.705 31.8083 25.0932 31.93 24.4753 31.93C23.8574 31.93 23.2456 31.8083 22.6748 31.5718C22.1039 31.3354 21.5853 30.9888 21.1484 30.5519C20.7115 30.115 20.3649 29.5963 20.1285 29.0255C19.892 28.4547 19.7703 27.8429 19.7703 27.225L12.0937 27.225Z" fill="black"/>
<path d="M19.1682 27.225C19.1682 26.5282 19.3055 25.8382 19.5721 25.1944C19.8388 24.5506 20.2297 23.9656 20.7224 23.4728C21.2152 22.9801 21.8001 22.5892 22.4439 22.3226C23.0877 22.0559 23.7777 21.9186 24.4746 21.9186C25.1714 21.9186 25.8615 22.0559 26.5053 22.3226C27.1491 22.5892 27.734 22.9801 28.2268 23.4729C28.7195 23.9656 29.1104 24.5506 29.377 25.1944C29.6437 25.8382 29.781 26.5282 29.781 27.225L24.4746 27.225L19.1682 27.225Z" fill="black"/>
<circle r="3.59464" transform="matrix(1 8.74228e-08 8.74228e-08 -1 24.475 16.8404)" fill="black"/>
<circle r="2.39643" transform="matrix(1 8.74228e-08 8.74228e-08 -1 24.475 16.8404)" fill="black"/>
<path d="M97.1757 27.45C97.1757 23.3125 94.6507 20.875 91.2945 20.875C87.932 20.875 85.4132 23.3125 85.4132 27.45C85.4132 31.5813 87.932 34.025 91.2945 34.025C94.6507 34.025 97.1757 31.5875 97.1757 27.45ZM94.8445 27.45C94.8445 30.3625 93.382 31.9438 91.2945 31.9438C89.2132 31.9438 87.7445 30.3625 87.7445 27.45C87.7445 24.5375 89.2132 22.9563 91.2945 22.9563C93.382 22.9563 94.8445 24.5375 94.8445 27.45ZM101.002 28.225C101.002 26.8375 101.865 26.0375 103.077 26.0375C104.265 26.0375 104.965 26.7938 104.965 28.0875V33.85H107.227V27.7375C107.227 25.4188 105.915 24.125 103.921 24.125C102.446 24.125 101.509 24.7938 101.065 25.8813H100.952V21.05H98.7399V33.85H101.002V28.225ZM111.768 34.0438C113.274 34.0438 114.174 33.3375 114.587 32.5313H114.662V33.85H116.837V27.425C116.837 24.8875 114.768 24.125 112.937 24.125C110.918 24.125 109.368 25.025 108.868 26.775L110.981 27.075C111.206 26.4188 111.843 25.8563 112.949 25.8563C113.999 25.8563 114.574 26.3938 114.574 27.3375V27.375C114.574 28.025 113.893 28.0563 112.199 28.2375C110.337 28.4375 108.556 28.9938 108.556 31.1563C108.556 33.0438 109.937 34.0438 111.768 34.0438ZM112.356 32.3813C111.412 32.3813 110.737 31.95 110.737 31.1188C110.737 30.25 111.493 29.8875 112.506 29.7438C113.099 29.6625 114.287 29.5125 114.581 29.275V30.4063C114.581 31.475 113.718 32.3813 112.356 32.3813ZM120.846 28.225C120.846 26.8375 121.684 26.0375 122.878 26.0375C124.046 26.0375 124.746 26.8063 124.746 28.0875V33.85H127.009V27.7375C127.015 25.4375 125.703 24.125 123.721 24.125C122.284 24.125 121.296 24.8125 120.859 25.8813H120.746V24.25H118.584V33.85H120.846V28.225ZM131.543 34.0438C133.05 34.0438 133.95 33.3375 134.362 32.5313H134.437V33.85H136.612V27.425C136.612 24.8875 134.543 24.125 132.712 24.125C130.693 24.125 129.143 25.025 128.643 26.775L130.756 27.075C130.981 26.4188 131.618 25.8563 132.725 25.8563C133.775 25.8563 134.35 26.3938 134.35 27.3375V27.375C134.35 28.025 133.668 28.0563 131.975 28.2375C130.112 28.4375 128.331 28.9938 128.331 31.1563C128.331 33.0438 129.712 34.0438 131.543 34.0438ZM132.131 32.3813C131.187 32.3813 130.512 31.95 130.512 31.1188C130.512 30.25 131.268 29.8875 132.281 29.7438C132.875 29.6625 134.062 29.5125 134.356 29.275V30.4063C134.356 31.475 133.493 32.3813 132.131 32.3813Z" fill="black"/>
</svg>
